<svg width="24" height="17" viewBox="0 0 24 17" fill="none" xmlns="http://www.w3.org/2000/svg">
<path d="M2.95544 16.8809C2.29919 16.8809 1.79822 16.7139 1.45251 16.3799C1.11267 16.0518 0.942749 15.5771 0.942749 14.9561V7.40625C0.942749 6.7793 1.11267 6.30176 1.45251 5.97363C1.79822 5.63965 2.29919 5.47266 2.95544 5.47266H5.45154C6.10779 5.47266 6.60583 5.63965 6.94568 5.97363C7.29138 6.30176 7.46423 6.7793 7.46423 7.40625V14.9561C7.46423 15.5771 7.29138 16.0518 6.94568 16.3799C6.60583 16.7139 6.10779 16.8809 5.45154 16.8809H2.95544ZM11.0765 16.8809C10.4203 16.8809 9.91931 16.7139 9.57361 16.3799C9.23376 16.0518 9.06384 15.5771 9.06384 14.9561V4.83984C9.06384 4.21289 9.23376 3.73242 9.57361 3.39844C9.91931 3.06445 10.4203 2.89746 11.0765 2.89746H13.5726C14.2289 2.89746 14.7269 3.06445 15.0668 3.39844C15.4125 3.73242 15.5853 4.21289 15.5853 4.83984V14.9561C15.5853 15.5771 15.4125 16.0518 15.0668 16.3799C14.7269 16.7139 14.2289 16.8809 13.5726 16.8809H11.0765ZM19.1976 16.8809C18.5472 16.8809 18.0492 16.7139 17.7035 16.3799C17.3636 16.0518 17.1937 15.5771 17.1937 14.9561V2.27344C17.1937 1.65234 17.3636 1.1748 17.7035 0.84082C18.0492 0.506836 18.5472 0.339844 19.1976 0.339844H21.6937C22.3558 0.339844 22.8568 0.506836 23.1967 0.84082C23.5424 1.1748 23.7152 1.65234 23.7152 2.27344V14.9561C23.7152 15.5771 23.5424 16.0518 23.1967 16.3799C22.8568 16.7139 22.3558 16.8809 21.6937 16.8809H19.1976Z" fill="#7D53B7"/>
</svg>
