<svg width="19" height="17" viewBox="0 0 19 17" fill="none" xmlns="http://www.w3.org/2000/svg">
<path d="M3.11987 16.8721C2.17065 16.8721 1.45288 16.6289 0.966553 16.1426C0.480225 15.6621 0.237061 14.9531 0.237061 14.0156V3.31934C0.237061 2.37598 0.480225 1.66406 0.966553 1.18359C1.45288 0.703125 2.17065 0.462891 3.11987 0.462891H15.2136C16.1687 0.462891 16.8865 0.703125 17.3669 1.18359C17.8533 1.66406 18.0964 2.37598 18.0964 3.31934V14.0156C18.0964 14.9531 17.8533 15.6621 17.3669 16.1426C16.8865 16.6289 16.1687 16.8721 15.2136 16.8721H3.11987ZM3.10229 15.1406H15.2224C15.5916 15.1406 15.8728 15.0469 16.0662 14.8594C16.2654 14.666 16.365 14.3789 16.365 13.998V5.87695C16.365 5.49609 16.2654 5.20898 16.0662 5.01562C15.8728 4.82227 15.5916 4.72559 15.2224 4.72559H3.10229C2.73315 4.72559 2.4519 4.82227 2.25854 5.01562C2.06519 5.20898 1.96851 5.49609 1.96851 5.87695V13.998C1.96851 14.3789 2.06519 14.666 2.25854 14.8594C2.4519 15.0469 2.73315 15.1406 3.10229 15.1406ZM7.47925 7.78418C7.32104 7.78418 7.20972 7.75488 7.14526 7.69629C7.08667 7.63184 7.05737 7.52344 7.05737 7.37109V6.85254C7.05737 6.69434 7.08667 6.58887 7.14526 6.53613C7.20972 6.47754 7.32104 6.44824 7.47925 6.44824H7.9978C8.15015 6.44824 8.25854 6.47754 8.323 6.53613C8.38745 6.58887 8.41968 6.69434 8.41968 6.85254V7.37109C8.41968 7.52344 8.38745 7.63184 8.323 7.69629C8.25854 7.75488 8.15015 7.78418 7.9978 7.78418H7.47925ZM10.3445 7.78418C10.1921 7.78418 10.0837 7.75488 10.0193 7.69629C9.96069 7.63184 9.9314 7.52344 9.9314 7.37109V6.85254C9.9314 6.69434 9.96069 6.58887 10.0193 6.53613C10.0837 6.47754 10.1921 6.44824 10.3445 6.44824H10.863C11.0271 6.44824 11.1384 6.47754 11.197 6.53613C11.2556 6.58887 11.2849 6.69434 11.2849 6.85254V7.37109C11.2849 7.52344 11.2556 7.63184 11.197 7.69629C11.1384 7.75488 11.0271 7.78418 10.863 7.78418H10.3445ZM13.2273 7.78418C13.0691 7.78418 12.9578 7.75488 12.8933 7.69629C12.8347 7.63184 12.8054 7.52344 12.8054 7.37109V6.85254C12.8054 6.69434 12.8347 6.58887 12.8933 6.53613C12.9578 6.47754 13.0691 6.44824 13.2273 6.44824H13.7371C13.9011 6.44824 14.0125 6.47754 14.071 6.53613C14.1296 6.58887 14.1589 6.69434 14.1589 6.85254V7.37109C14.1589 7.52344 14.1296 7.63184 14.071 7.69629C14.0125 7.75488 13.9011 7.78418 13.7371 7.78418H13.2273ZM4.60522 10.6055C4.44702 10.6055 4.33569 10.5762 4.27124 10.5176C4.21265 10.459 4.18335 10.3535 4.18335 10.2012V9.68262C4.18335 9.52441 4.21265 9.41602 4.27124 9.35742C4.33569 9.29883 4.44702 9.26953 4.60522 9.26953H5.12378C5.27612 9.26953 5.38159 9.29883 5.44019 9.35742C5.50464 9.41602 5.53687 9.52441 5.53687 9.68262V10.2012C5.53687 10.3535 5.50464 10.459 5.44019 10.5176C5.38159 10.5762 5.27612 10.6055 5.12378 10.6055H4.60522ZM7.47925 10.6055C7.32104 10.6055 7.20972 10.5762 7.14526 10.5176C7.08667 10.459 7.05737 10.3535 7.05737 10.2012V9.68262C7.05737 9.52441 7.08667 9.41602 7.14526 9.35742C7.20972 9.29883 7.32104 9.26953 7.47925 9.26953H7.9978C8.15015 9.26953 8.25854 9.29883 8.323 9.35742C8.38745 9.41602 8.41968 9.52441 8.41968 9.68262V10.2012C8.41968 10.3535 8.38745 10.459 8.323 10.5176C8.25854 10.5762 8.15015 10.6055 7.9978 10.6055H7.47925ZM10.3445 10.6055C10.1921 10.6055 10.0837 10.5762 10.0193 10.5176C9.96069 10.459 9.9314 10.3535 9.9314 10.2012V9.68262C9.9314 9.52441 9.96069 9.41602 10.0193 9.35742C10.0837 9.29883 10.1921 9.26953 10.3445 9.26953H10.863C11.0271 9.26953 11.1384 9.29883 11.197 9.35742C11.2556 9.41602 11.2849 9.52441 11.2849 9.68262V10.2012C11.2849 10.3535 11.2556 10.459 11.197 10.5176C11.1384 10.5762 11.0271 10.6055 10.863 10.6055H10.3445ZM13.2273 10.6055C13.0691 10.6055 12.9578 10.5762 12.8933 10.5176C12.8347 10.459 12.8054 10.3535 12.8054 10.2012V9.68262C12.8054 9.52441 12.8347 9.41602 12.8933 9.35742C12.9578 9.29883 13.0691 9.26953 13.2273 9.26953H13.7371C13.9011 9.26953 14.0125 9.29883 14.071 9.35742C14.1296 9.41602 14.1589 9.52441 14.1589 9.68262V10.2012C14.1589 10.3535 14.1296 10.459 14.071 10.5176C14.0125 10.5762 13.9011 10.6055 13.7371 10.6055H13.2273ZM4.60522 13.4355C4.44702 13.4355 4.33569 13.4092 4.27124 13.3564C4.21265 13.2979 4.18335 13.1865 4.18335 13.0225V12.5127C4.18335 12.3545 4.21265 12.2461 4.27124 12.1875C4.33569 12.1289 4.44702 12.0996 4.60522 12.0996H5.12378C5.27612 12.0996 5.38159 12.1289 5.44019 12.1875C5.50464 12.2461 5.53687 12.3545 5.53687 12.5127V13.0225C5.53687 13.1865 5.50464 13.2979 5.44019 13.3564C5.38159 13.4092 5.27612 13.4355 5.12378 13.4355H4.60522ZM7.47925 13.4355C7.32104 13.4355 7.20972 13.4092 7.14526 13.3564C7.08667 13.2979 7.05737 13.1865 7.05737 13.0225V12.5127C7.05737 12.3545 7.08667 12.2461 7.14526 12.1875C7.20972 12.1289 7.32104 12.0996 7.47925 12.0996H7.9978C8.15015 12.0996 8.25854 12.1289 8.323 12.1875C8.38745 12.2461 8.41968 12.3545 8.41968 12.5127V13.0225C8.41968 13.1865 8.38745 13.2979 8.323 13.3564C8.25854 13.4092 8.15015 13.4355 7.9978 13.4355H7.47925ZM10.3445 13.4355C10.1921 13.4355 10.0837 13.4092 10.0193 13.3564C9.96069 13.2979 9.9314 13.1865 9.9314 13.0225V12.5127C9.9314 12.3545 9.96069 12.2461 10.0193 12.1875C10.0837 12.1289 10.1921 12.0996 10.3445 12.0996H10.863C11.0271 12.0996 11.1384 12.1289 11.197 12.1875C11.2556 12.2461 11.2849 12.3545 11.2849 12.5127V13.0225C11.2849 13.1865 11.2556 13.2979 11.197 13.3564C11.1384 13.4092 11.0271 13.4355 10.863 13.4355H10.3445Z" fill="#7D53B7"/>
</svg>
